<?xml version="1.0" encoding="utf-8"?>
<!-- Generator: Adobe Illustrator 27.2.0, SVG Export Plug-In . SVG Version: 6.00 Build 0)  -->
<svg version="1.1" id="Layer_1" xmlns="http://www.w3.org/2000/svg" xmlns:xlink="http://www.w3.org/1999/xlink" x="0px" y="0px"
	 viewBox="0 0 425.2 425.2" style="enable-background:new 0 0 425.2 425.2;" xml:space="preserve">
<style type="text/css">
	.st0{fill:#FFFFFF;}
	.st1{fill:#FFD800;}
	.st2{clip-path:url(#SVGID_00000028300817949204751440000012747471886959591310_);fill:#FFFFFF;}
</style>
<g>
	<g>
		<path class="st0" d="M257.1,188.8H77.8c-4,0-7.3,3.3-7.3,7.3v40.3c0,4,3.3,7.3,7.3,7.3l8,0c0.5,14.5,18.1,67.4,27.2,93.9
			c3.2,9.3,2.4,13.1,7.1,14.9c1.8,0.7,8.4,0.5,8.4,0.5l77.9,0c0,0,6.6,0.3,8.7-0.6c2.5-1.1,3.1-2.9,3.1-2.9S250,258.2,249,243.8h8.1
			c4,0,7.3-3.3,7.3-7.3v-40.3C264.5,192.1,261.2,188.8,257.1,188.8z M249,224.9c0,1.9-1.5,3.4-3.4,3.4h-12v15.5
			c-2.9,21.9-27.9,93.8-27.9,93.8h-77.2c0,0-26.1-78.5-27.1-93.8v-15.5h-12c-1.9,0-3.4-1.5-3.4-3.4v-17.1c0-1.9,1.5-3.4,3.4-3.4
			h156.2c1.9,0,3.4,1.5,3.4,3.4V224.9z"/>
	</g>
	<path class="st1" d="M353.9,229.5c0-29.8-15.4-67.7-45.9-112.8c-11.9-17.6-23.6-32.4-31.3-41.7c-15.8-19.2-16.7-19.2-20.3-19.2
		c-3.6,0-4.5,0-20.3,19.2c-7.7,9.4-19.4,24.2-31.3,41.7c-13.9,20.7-31.7,45.4-42.8,88.1H178c9.5-44.6,59.9-108.9,77.8-129.3
		c-2.6,15.9-7.4,53.2-8.9,87.2c-0.1,2.1-31.2-13.9-31.3-11.7c0,2.2,31,19.9,31,22.1c-0.1,29.4,7.9,50.2,8.3,86.9
		c0.4,42.5-2.1,57.9-5.2,79.2c-0.2,1.3-0.4,3.1-0.5,5c-6.4-0.8-12.6-2.6-18.5-5.3h0l-0.7-0.3c-0.9-0.4-1.8-0.8-2.6-1.3
		c-0.3-0.1-0.5-0.3-0.8-0.4c-1-0.5-1.9-1-2.8-1.6l-0.3-0.2c-28.9-17.8-49.1-58.3-49.1-105.4c0-1.7,0.8-14.9,3.6-24.7H162
		c-3.1,12-3.1,23-3.1,24.7c0,44.8,16.9,84.4,42.7,107.9h0c5.4,4.9,11.2,9.2,17.3,12.6c9.3,5.2,19.3,8.5,29.8,9.6c0,5.1,0.2,9,0.6,9
		h11.1c0,0-0.1-3.5-0.1-8.7C312.2,357.2,353.9,299.7,353.9,229.5z M260,344.4c0-1.8-0.1-3.6-0.1-5.3c-0.1-7.1,4.4-32.7,4.9-59.4
		c0.1-2.7,51.9-39,52-41.8c0.1-2.9-51.7,32.9-51.7,29.8c-0.4-45.4-9.9-63.2-9.9-110.2c0-3.7,0.1,0,0.3-4.2
		c0.1-2.2,26.1-27.8,26.2-30.2c0.1-2.4-25.6,21.1-25.5,18.6c1.5-23.4,1.4-51.7,1.3-65.6c21.3,24.4,80.7,100.6,80.7,153.3
		C338.3,291.2,303.5,341.7,260,344.4z"/>
	<g>
		<defs>
			<path id="SVGID_1_" d="M68.4,186.8v168.3h198.1V186.8H68.4z M219.1,349.9c0,0,0,0.1-0.1,0.2c-0.1,0-0.1-0.1-0.2-0.1
				c-6.1-3.4-11.9-7.6-17.3-12.6h0c-0.2-0.2-0.3-0.3-0.5-0.5l0.2-0.3h3.6c0.6-1.7,2.2-6.5,4.4-13.1c4.4,4.4,9.2,8.2,14.2,11.3
				l0.3,0.2c0.1,0.1,0.2,0.1,0.3,0.2C221.2,344,219.1,349.9,219.1,349.9z"/>
		</defs>
		<clipPath id="SVGID_00000011747427838403638090000006647935134418510266_">
			<use xlink:href="#SVGID_1_"  style="overflow:visible;"/>
		</clipPath>
		<path style="clip-path:url(#SVGID_00000011747427838403638090000006647935134418510266_);fill:#FFFFFF;" d="M257.1,188.8H77.8
			c-4,0-7.3,3.3-7.3,7.3v40.3c0,4,3.3,7.3,7.3,7.3l8,0c0.5,14.5,18.1,67.4,27.2,93.9c3.2,9.3,2.4,13.1,7.1,14.9
			c1.8,0.7,8.4,0.5,8.4,0.5l77.9,0c0,0,6.6,0.3,8.7-0.6c2.5-1.1,3.1-2.9,3.1-2.9S250,258.2,249,243.8h8.1c4,0,7.3-3.3,7.3-7.3v-40.3
			C264.5,192.1,261.2,188.8,257.1,188.8z M249,224.9c0,1.9-1.5,3.4-3.4,3.4h-12v15.5c-2.9,21.9-27.9,93.8-27.9,93.8h-77.2
			c0,0-26.1-78.5-27.1-93.8v-15.5h-12c-1.9,0-3.4-1.5-3.4-3.4v-17.1c0-1.9,1.5-3.4,3.4-3.4h156.2c1.9,0,3.4,1.5,3.4,3.4V224.9z"/>
	</g>
</g>
</svg>
