<svg width="64" height="50" viewBox="0 0 64 50" fill="none" xmlns="http://www.w3.org/2000/svg">
<g clip-path="url(#clip0_8027_15457)">
<path d="M16.35 45.3C12.65 45.3 9.65 44 7.35 41.4C5.15 38.7 4.05 35.2 4.05 30.9C4.05 25.3 5.7 20.1 9 15.3C12.3 10.4 16.4 6.75 21.3 4.35L22.2 6.14999C20.1 7.75 18.25 9.8 16.65 12.3C15.05 14.8 13.9 17.9 13.2 21.6L16.35 22.35C19.85 23.15 22.55 24.65 24.45 26.85C26.45 28.95 27.45 31.5 27.45 34.5C27.45 37.7 26.35 40.3 24.15 42.3C22.05 44.3 19.45 45.3 16.35 45.3ZM48 45.3C44.3 45.3 41.3 44 39 41.4C36.8 38.7 35.7 35.2 35.7 30.9C35.7 25.3 37.35 20.1 40.65 15.3C43.95 10.4 48.05 6.75 52.95 4.35L53.85 6.14999C51.75 7.75 49.9 9.8 48.3 12.3C46.7 14.8 45.55 17.9 44.85 21.6L48 22.35C51.5 23.15 54.2 24.65 56.1 26.85C58.1 28.95 59.1 31.5 59.1 34.5C59.1 37.7 58 40.3 55.8 42.3C53.7 44.3 51.1 45.3 48 45.3Z" fill="#FFD800"/>
</g>
<defs>
<clipPath id="clip0_8027_15457">
<rect width="64" height="50" fill="white"/>
</clipPath>
</defs>
</svg>
